<?xml version="1.0" standalone="no"?>
<!DOCTYPE svg PUBLIC "-//W3C//DTD SVG 20010904//EN"
 "http://www.w3.org/TR/2001/REC-SVG-20010904/DTD/svg10.dtd">
<svg version="1.0" xmlns="http://www.w3.org/2000/svg"
 width="599.000000pt" height="599.000000pt" viewBox="0 0 599.000000 599.000000"
 preserveAspectRatio="xMidYMid meet">
<metadata>
Created by potrace 1.14, written by Peter Selinger 2001-2017
</metadata>
<g transform="translate(0.000000,599.000000) scale(0.100000,-0.100000)"
fill="#000000" stroke="none">
<path d="M2700 5805 c-52 -8 -140 -25 -195 -40 -55 -14 -107 -28 -115 -30 -42
-9 -247 -102 -315 -142 -126 -74 -176 -113 -263 -202 -93 -95 -125 -155 -156
-294 -7 -28 -9 -29 -54 -24 -26 2 -82 10 -125 17 -92 16 -145 6 -217 -40 -50
-32 -196 -191 -261 -285 -42 -60 -127 -229 -148 -295 -34 -107 -67 -239 -76
-308 -3 -20 -8 -48 -11 -62 -2 -14 -7 -47 -9 -75 -3 -27 -9 -84 -15 -125 -5
-41 -11 -102 -15 -135 -13 -135 -31 -286 -39 -325 -1 -8 -6 -37 -11 -65 -10
-62 -87 -290 -125 -370 -183 -386 -211 -486 -212 -750 -1 -178 13 -271 64
-415 11 -30 21 -63 23 -73 2 -10 16 -44 31 -75 14 -31 33 -73 42 -92 34 -74
146 -252 269 -428 70 -100 141 -203 157 -228 44 -70 96 -244 103 -344 7 -111
-8 -179 -57 -258 -22 -35 -40 -67 -40 -72 0 -10 -31 -42 -80 -82 -30 -25 -31
-28 -13 -28 12 0 24 -4 27 -9 4 -6 20 -6 39 -1 17 5 68 11 112 15 178 14 314
68 420 166 20 18 53 33 98 43 87 20 165 57 213 101 45 41 73 42 104 2 39 -50
151 -95 248 -101 54 -3 138 16 196 46 53 27 121 96 140 141 8 21 21 38 28 39
37 4 44 2 54 -12 6 -8 14 -36 18 -61 7 -49 39 -116 65 -137 69 -56 174 -68
281 -32 78 26 121 65 161 143 27 52 32 57 63 57 30 0 37 -6 59 -42 39 -67 128
-148 189 -173 93 -38 180 -51 246 -36 31 7 62 13 67 14 20 5 121 65 134 81 22
26 60 19 103 -20 34 -31 83 -59 123 -71 130 -38 223 -41 316 -9 25 8 56 17 69
19 32 5 151 -37 204 -73 81 -55 187 -92 296 -104 30 -4 71 -9 91 -12 26 -4 48
1 75 15 21 12 48 21 58 21 16 0 11 10 -27 48 -30 30 -46 54 -42 63 3 9 -5 32
-19 51 -13 20 -27 54 -31 75 -10 61 -7 220 5 266 49 191 144 384 290 589 136
191 268 410 295 488 1 3 11 25 22 50 26 60 59 186 74 289 26 179 -12 402 -106
626 -40 96 -163 332 -198 379 -31 44 -57 90 -61 109 -2 12 -16 61 -30 110 -14
48 -26 94 -26 101 0 8 23 39 52 68 51 52 142 185 167 243 12 28 12 29 -6 13
-67 -59 -197 -82 -287 -50 -48 16 -50 20 -78 87 -15 39 -28 72 -29 75 -1 3 -3
10 -5 15 -4 10 -142 439 -148 460 -2 6 -6 17 -9 25 -4 8 -20 51 -36 95 -16 44
-43 110 -60 148 -17 37 -31 69 -31 72 0 18 -152 264 -211 342 -171 225 -435
444 -694 577 -192 98 -423 172 -655 211 -129 22 -428 27 -550 10z"/>
</g>
</svg>
